# xmcd
# 
# Track frame offsets:
#     150
#     2257
#     31825
#     61996
#     92169
#     120430
#     144823
#     170637
#     203599
#     235042
#     259544
#     287886
#     312537
#     330315
# 
# Disc length: 4440
# 
# Revision: 0
# Processed by: cddbd v1.5.2PL0 Copyright (c) Steve Scherf et al.
# Submitted via: fre:ac v1.0.27
# 
DISCID=ae11560e
DTITLE=Andy Weir - The Martian [CD3]
DYEAR=2011
DGENRE=Audiobook
TTITLE0=0301
TTITLE1=0302
TTITLE2=0303
TTITLE3=0304
TTITLE4=0305
TTITLE5=0306
TTITLE6=0307
TTITLE7=0308
TTITLE8=0309
TTITLE9=0310
TTITLE10=0311
TTITLE11=0312
TTITLE12=0313
TTITLE13=0314
EXTD=
EXTT0=
EXTT1=
EXTT2=
EXTT3=
EXTT4=
EXTT5=
EXTT6=
EXTT7=
EXTT8=
EXTT9=
EXTT10=
EXTT11=
EXTT12=
EXTT13=
PLAYORDER=
